<svg xmlns="http://www.w3.org/2000/svg" width="1778.7" height="213.7" viewBox="0 0 1778.7 213.7"><path d="M1592.1 31h173.8c8.7 0 12.7 2.7 12.8 8.5.2 6-4 8.8-12.9 8.8h-173.6l-.1 13.6h174.8c7.9 0 11.6 3.1 11.1 9.4-.3 4.4-2.8 7-7.2 7.5-1.6.2-3.3.1-5 .1h-173.4v14h174.9c7.4 0 11.1 3.3 10.7 9.3-.3 4.5-2.9 7-7.2 7.6-1.6.2-3.3.1-5 .1h-323.9c-10.8 0-13.5-2.8-13.5-13.7V13.7c0-10.5 3.2-13.8 13.6-13.8h323.9c8.4 0 12.1 2.6 12.1 8.6 0 4.7-2.2 7.6-6.8 8.4-2.1.4-4.3.3-6.5.3h-172.6V31zM1440.7 203.3c-1.8 0-3.7.1-5.5-.2-4.1-.8-6.4-3.5-6.7-7.6-.3-4.3 1.8-7.4 5.9-8.7 1.9-.6 4-.5 5.9-.5h326.4c8.3 0 11.7 2.7 11.3 9-.3 4.4-2.7 7.1-7 7.8-1.8.3-3.7.2-5.5.2h-324.8zM1436.1 171.9c-4.4-.5-7.5-3.7-7.6-7.9 0-4.4 2.3-7.2 6.5-8.3 1.3-.3 223.1-.4 332.7-.4 7.2 0 10.6 2.9 10.4 8.5-.2 4.5-2.9 7.5-7.3 8.1-1.6.2-3.3.1-5 .1-54.1 0-328.1.1-329.7-.1zM1439.7 141c-7.5-.1-11.2-2.9-11.1-8.5.1-5.3 4.3-8.7 11.3-8.7h326.5c8.6 0 13.2 4.4 11.4 11-1 3.6-3.5 5.6-7.2 6-1.8.2-3.7.2-5.5.2h-325.4zM.5 100V8.6h29.1c14 0 24.7 3.9 31.9 11.6s10.9 19.1 10.9 34.1-3.6 26.3-10.9 34c-7.2 7.7-17.9 11.6-32 11.6H.5zm12.8-11.2h14.4c11.1 0 19.3-2.8 24.5-8.3C57.4 75 60 66.3 60 54.4c0-12-2.6-20.7-7.8-26.2-5.2-5.5-13.4-8.3-24.5-8.3H13.3v68.9zM91.7 100V8.6h59.6v11.9h-46.8v27.8h41.2v11.9h-41.2V88h46.8v12H91.7zM170.1 100V8.6h12.8v79.5h45.4V100h-58.2zM224.8 20.5V8.6H299v11.9h-30.8V100h-12.8V20.5h-30.6zM296.8 100l36.5-91.4h12.4L382 100h-13.7l-9.8-25.6h-38.1l-9.8 25.6h-13.8zm28.1-37.5h29l-14.5-37.9-14.5 37.9zM443.1 100V8.6h13.8l29.9 39.5L517 8.6h13.8V100H518V28l-31.2 40.9-31-40.9v72h-12.7zM553 74c-1.7-5.7-2.6-12.2-2.6-19.7s.9-14.1 2.6-19.7c1.7-5.7 4-10.2 6.7-13.5 2.7-3.4 6.1-6.1 9.9-8.2 3.9-2.1 7.7-3.5 11.4-4.2 3.7-.7 7.7-1.1 11.8-1.1 4.2 0 8.1.4 11.8 1.1 3.7.7 7.5 2.1 11.4 4.2 3.9 2.1 7.2 4.9 9.9 8.2 2.7 3.4 5 7.9 6.7 13.5 1.7 5.7 2.6 12.2 2.6 19.7s-.9 14.1-2.6 19.7c-1.7 5.7-4 10.2-6.7 13.5-2.7 3.4-6 6.1-9.9 8.2-3.9 2.1-7.7 3.5-11.4 4.2-3.7.7-7.6 1.1-11.8 1.1-4.2 0-8.1-.4-11.8-1.1-3.7-.7-7.5-2.1-11.4-4.2-3.9-2.1-7.2-4.9-9.9-8.2-2.7-3.3-5-7.9-6.7-13.5zm12-35.4c-1.2 4.4-1.9 9.7-1.9 15.7s.6 11.2 1.9 15.7c1.2 4.4 2.8 7.9 4.6 10.3 1.8 2.5 4.1 4.4 6.9 5.9 2.8 1.5 5.4 2.4 7.9 2.8 2.4.4 5.3.6 8.5.6s6-.2 8.5-.6c2.5-.4 5.1-1.3 7.9-2.8 2.8-1.5 5.1-3.4 6.9-5.9 1.8-2.5 3.4-5.9 4.6-10.3 1.2-4.4 1.8-9.7 1.8-15.7s-.6-11.2-1.8-15.7-2.8-7.9-4.6-10.3c-1.8-2.5-4.1-4.4-6.9-5.9-2.8-1.5-5.4-2.4-7.9-2.8-2.5-.4-5.3-.6-8.5-.6s-6 .2-8.5.6c-2.5.4-5.1 1.3-7.9 2.8-2.8 1.5-5.1 3.4-6.9 5.9-1.8 2.4-3.4 5.8-4.6 10.3zM644.7 20.5V8.6H719v11.9h-30.8V100h-12.8V20.5h-30.7zM728.8 74c-1.7-5.7-2.6-12.2-2.6-19.7s.9-14.1 2.6-19.7c1.7-5.7 4-10.2 6.7-13.5 2.7-3.4 6.1-6.1 9.9-8.2 3.9-2.1 7.7-3.5 11.4-4.2 3.7-.7 7.7-1.1 11.8-1.1 4.2 0 8.1.4 11.8 1.1 3.7.7 7.5 2.1 11.4 4.2 3.9 2.1 7.2 4.9 9.9 8.2 2.7 3.4 5 7.9 6.7 13.5 1.7 5.7 2.6 12.2 2.6 19.7s-.9 14.1-2.6 19.7c-1.7 5.7-4 10.2-6.7 13.5-2.7 3.4-6 6.1-9.9 8.2-3.9 2.1-7.7 3.5-11.4 4.2-3.7.7-7.6 1.1-11.8 1.1-4.2 0-8.1-.4-11.8-1.1-3.7-.7-7.5-2.1-11.4-4.2-3.9-2.1-7.2-4.9-9.9-8.2-2.7-3.3-4.9-7.9-6.7-13.5zm12.1-35.4c-1.2 4.4-1.9 9.7-1.9 15.7s.6 11.2 1.9 15.7c1.2 4.4 2.8 7.9 4.6 10.3 1.8 2.5 4.1 4.4 6.9 5.9 2.8 1.5 5.4 2.4 7.9 2.8 2.4.4 5.3.6 8.5.6s6-.2 8.5-.6c2.5-.4 5.1-1.3 7.9-2.8 2.8-1.5 5.1-3.4 6.9-5.9 1.8-2.5 3.4-5.9 4.6-10.3 1.2-4.4 1.8-9.7 1.8-15.7s-.6-11.2-1.8-15.7-2.8-7.9-4.6-10.3c-1.8-2.5-4.1-4.4-6.9-5.9-2.8-1.5-5.4-2.4-7.9-2.8-2.5-.4-5.3-.6-8.5-.6s-6 .2-8.5.6c-2.5.4-5.1 1.3-7.9 2.8-2.8 1.5-5.1 3.4-6.9 5.9-1.8 2.4-3.4 5.8-4.6 10.3zM830.7 100V8.6h33.7c10.2 0 18.3 2.4 24.1 7.2 5.9 4.8 8.8 11.6 8.8 20.5 0 7.5-2 13.4-5.9 17.8-3.9 4.4-8.8 7.4-14.6 9.1l24.3 36.8H886l-22-34.8h-20.5V100h-12.8zm12.8-46.7h20.4c7.9 0 13.4-1.5 16.3-4.6 2.9-3.1 4.4-7.1 4.4-12 0-11.2-7.1-16.8-21.2-16.8h-19.9v33.4zM906.5 8.6h12.8l22.8 73.7 22.7-73.7h10.8L998 80.9l22.3-72.3h12.8l-29.4 91.4h-12.1L970 30.7 948.3 100h-12.5L906.5 8.6zM1047 74c-1.7-5.7-2.6-12.2-2.6-19.7s.9-14.1 2.6-19.7c1.7-5.7 4-10.2 6.7-13.5 2.7-3.4 6.1-6.1 9.9-8.2s7.7-3.5 11.4-4.2c3.7-.7 7.7-1.1 11.8-1.1 4.2 0 8.1.4 11.8 1.1 3.7.7 7.5 2.1 11.4 4.2s7.2 4.9 9.9 8.2c2.7 3.4 5 7.9 6.7 13.5 1.7 5.7 2.6 12.2 2.6 19.7s-.9 14.1-2.6 19.7c-1.7 5.7-4 10.2-6.7 13.5-2.7 3.4-6 6.1-9.9 8.2-3.9 2.1-7.7 3.5-11.4 4.2-3.7.7-7.6 1.1-11.8 1.1-4.2 0-8.1-.4-11.8-1.1-3.7-.7-7.5-2.1-11.4-4.2-3.9-2.1-7.2-4.9-9.9-8.2-2.7-3.3-5-7.9-6.7-13.5zm12-35.4c-1.2 4.4-1.9 9.7-1.9 15.7s.6 11.2 1.9 15.7c1.2 4.4 2.8 7.9 4.6 10.3 1.8 2.5 4.1 4.4 6.9 5.9 2.8 1.5 5.4 2.4 7.9 2.8 2.5.4 5.3.6 8.5.6s6-.2 8.5-.6c2.5-.4 5.1-1.3 7.9-2.8 2.8-1.5 5.1-3.4 6.9-5.9 1.8-2.5 3.4-5.9 4.6-10.3 1.2-4.4 1.8-9.7 1.8-15.7s-.6-11.2-1.8-15.7c-1.2-4.4-2.8-7.9-4.6-10.3-1.8-2.5-4.1-4.4-6.9-5.9-2.8-1.5-5.4-2.4-7.9-2.8-2.5-.4-5.3-.6-8.5-.6s-6 .2-8.5.6c-2.4.4-5.1 1.3-7.9 2.8-2.8 1.5-5.1 3.4-6.9 5.9-1.8 2.4-3.3 5.8-4.6 10.3zM1148.9 100V8.6h33.7c10.2 0 18.3 2.4 24.1 7.2s8.8 11.6 8.8 20.5c0 7.5-2 13.4-5.9 17.8-3.9 4.4-8.8 7.4-14.6 9.1l24.3 36.8h-15.1l-22.1-34.8h-20.5V100h-12.7zm12.7-46.7h20.4c7.9 0 13.4-1.5 16.3-4.6 2.9-3.1 4.4-7.1 4.4-12 0-11.2-7.1-16.8-21.2-16.8h-19.9v33.4zM1235 100V8.6h12.8v44.2l41.9-44.2h16.1L1266.9 50l42.2 50h-15.7l-34.9-41.1-10.8 11.5V100H1235zM1319.7 33.3c0-7.1 2.6-13.2 7.8-18.2 5.2-5 13.2-7.5 24.1-7.5 8.2 0 16.1 1.9 23.6 5.6v12.4c-6.7-4.1-14-6.1-22-6.1-13.8 0-20.7 4.6-20.7 13.8 0 2.5 1.2 4.6 3.6 6.5 2.4 1.8 5.4 3.3 9 4.4 3.6 1.1 7.5 2.5 11.7 4.3 4.2 1.8 8.1 3.6 11.7 5.6 3.6 2 6.6 4.9 9 8.7 2.4 3.8 3.6 8.3 3.6 13.4 0 7.8-2.9 13.9-8.8 18.3-5.8 4.4-13.9 6.6-24.2 6.6-9.2 0-18.2-2.2-27.2-6.5V81.4c8.5 5.2 17.2 7.8 26.1 7.8 14.2 0 21.3-4.3 21.4-13 0-3.7-1.2-6.8-3.6-9.5-2.4-2.6-5.4-4.5-8.9-5.7l-11.8-4c-4.3-1.5-8.2-3-11.7-4.6-3.6-1.6-6.5-4-9-7.3-2.5-3.1-3.7-7.1-3.7-11.8zM0 199.4v-48.7h15.5c7.5 0 13.2 2.1 17 6.2s5.8 10.2 5.8 18.2-1.9 14-5.8 18.1-9.5 6.2-17 6.2H0zm6.8-6h7.7c5.9 0 10.3-1.5 13.1-4.4 2.8-2.9 4.2-7.6 4.2-13.9 0-6.4-1.4-11-4.2-14-2.8-2.9-7.1-4.4-13.1-4.4H6.8v36.7zM44.9 181.6c0-12.8 5.4-19.2 16.1-19.2h.1c4.9 0 8.8 1.6 11.7 4.8 2.9 3.2 4.4 7.4 4.4 12.8 0 1.7-.1 3.4-.2 5H51.7c.8 6.2 4.2 9.4 10.3 9.4 4.9 0 9.1-.9 12.6-2.7v6.1c-3.8 1.6-8 2.4-12.7 2.4h-.2c-2.1 0-4.1-.3-5.9-.8-1.8-.5-3.6-1.4-5.3-2.7-1.7-1.2-3.1-3.1-4-5.7-1.1-2.7-1.6-5.8-1.6-9.4zm6.7-2.6h18.7c-.1-1.2-.3-2.4-.6-3.5s-.8-2.2-1.5-3.4c-.7-1.1-1.6-2-2.8-2.7-1.2-.7-2.7-1-4.4-1-3.1 0-5.3.8-6.8 2.4-1.4 1.5-2.3 4.3-2.6 8.2zM82.6 173.3c0-3 1.1-5.6 3.2-7.7 2.2-2.1 5.4-3.2 9.9-3.2 3.3 0 6.5.8 9.7 2.4v5.8c-3.2-1.4-6.1-2.2-8.9-2.2-4.8 0-7.2 1.6-7.2 4.7 0 1 .6 1.9 1.9 2.5s2.8 1.3 4.6 1.8c1.8.5 3.6 1.1 5.4 1.8 1.8.7 3.4 1.9 4.7 3.6 1.3 1.7 1.9 3.8 1.9 6.3 0 2.9-1.1 5.5-3.3 7.6-2.2 2.1-5.6 3.2-10.2 3.2-3.9 0-7.4-.9-10.5-2.6v-6.1c3.2 1.8 6.5 2.7 10.1 2.7h.1c2.3 0 4.1-.4 5.3-1.3 1.2-.8 1.8-1.9 1.8-3.2 0-1.5-.6-2.7-1.9-3.6-1.3-.9-2.8-1.6-4.7-2.1-1.8-.5-3.7-1.1-5.5-1.7-1.8-.6-3.4-1.7-4.6-3.1-1.2-1.4-1.8-3.3-1.8-5.6zM115.1 157.3v-7.1h7.1v7.1h-7.1zm.3 42.1V163h6.7v36.4h-6.7zM130.1 180.9c0-5.6 1.3-10.2 3.8-13.5 2.6-3.4 6.5-5.1 11.8-5.1 4.4 0 8 1 10.6 3s4 4.8 4 8.5v27.1c0 1.6-.2 3.1-.7 4.5s-1.2 2.7-2.3 4c-1.1 1.3-2.7 2.4-4.9 3.1-2.2.7-4.9 1.1-8 1.1-3.7 0-7.3-.5-10.8-1.5v-6.3c3.4 1 6.9 1.5 10.2 1.5 2.3 0 4.2-.2 5.7-.6 1.5-.4 2.5-1 3-1.8.6-.8.9-1.4 1-2 .1-.5.2-1.2.2-2.1v-3.2c-2.5.7-4.9 1-7.4 1-5.2 0-9.2-1.5-12-4.6s-4.2-7.4-4.2-13.1zm6.7 0c0 4.7.8 7.9 2.5 9.4 1.7 1.6 4 2.3 7 2.3 2.6 0 5.1-.5 7.4-1.4v-17.9c0-.5 0-1-.1-1.4-.1-.4-.4-.9-.8-1.6s-1.3-1.2-2.4-1.6c-1.2-.4-2.7-.5-4.6-.5-1.2 0-2.3.1-3.2.4-.9.3-1.8.8-2.8 1.6-1 .8-1.7 2.1-2.2 3.9-.5 1.9-.8 4.1-.8 6.8zM168.7 199.4v-33.3c5.1-2.5 10.2-3.7 15.5-3.7 4.6 0 8.2 1.2 10.8 3.6 2.6 2.4 3.9 5.7 3.9 10v23.5h-6.8v-24c0-2.1-.5-3.8-1.6-5.1-1.1-1.2-3.3-1.9-6.6-1.9-3 0-5.8.4-8.6 1.3v29.6h-6.6zM206.6 181.6c0-12.8 5.4-19.2 16.1-19.2h.1c4.9 0 8.8 1.6 11.7 4.8 2.9 3.2 4.4 7.4 4.4 12.8 0 1.7-.1 3.4-.2 5h-25.2c.8 6.2 4.2 9.4 10.3 9.4 4.9 0 9.1-.9 12.6-2.7v6.1c-3.8 1.6-8 2.4-12.7 2.4h-.2c-2.1 0-4.1-.3-5.9-.8-1.8-.5-3.6-1.4-5.3-2.7-1.7-1.2-3.1-3.1-4-5.7-1.2-2.7-1.7-5.8-1.7-9.4zm6.7-2.6H232c-.1-1.2-.3-2.4-.6-3.5s-.8-2.2-1.5-3.4c-.7-1.1-1.6-2-2.8-2.7-1.2-.7-2.7-1-4.4-1-3.1 0-5.3.8-6.8 2.4-1.4 1.5-2.3 4.3-2.6 8.2zM244.5 180.7c0-3.6.5-6.7 1.5-9.2 1-2.5 2.4-4.4 4.1-5.7 1.7-1.3 3.5-2.1 5.3-2.7 1.8-.5 3.8-.8 5.9-.8 2.6 0 5.2.4 7.8 1.1v-14.3h6.7v39c0 .8-.1 1.6-.2 2.3-.2.8-.5 1.8-1.1 3-.6 1.2-1.4 2.3-2.4 3.2-1 .9-2.5 1.7-4.5 2.3s-4.3 1-6.9 1c-1.4 0-2.8-.1-4-.4-1.3-.2-2.7-.8-4.2-1.6s-2.8-1.9-3.9-3.2c-1.1-1.3-2-3.2-2.8-5.6-1-2.4-1.3-5.2-1.3-8.4zm6.6 0c0 2.8.3 5.1.8 7 .5 1.9 1.3 3.2 2.3 4.1s2 1.4 3 1.7c1 .3 2.1.5 3.5.5 5.6 0 8.4-1.8 8.4-5.4V170c-2.5-1-5.1-1.5-7.8-1.5-1.4 0-2.7.1-3.8.4-1.1.3-2.1.8-3.1 1.6s-1.8 2.1-2.3 3.8-1 3.8-1 6.4zM308.2 187.9c0-3.6 1.5-6.4 4.6-8.4 3-2 7.2-3 12.6-3 2.3 0 4.5.1 6.6.4-.1-3.1-1-5.3-2.5-6.6-1.5-1.3-4-2-7.5-2-3.2 0-6.5.6-10.1 1.8v-5.7c3.4-1.3 7.1-2 11-2 5.1 0 9 1.3 11.8 3.9 2.8 2.6 4.1 6.4 4.1 11.3v10.5c0 .8-.1 1.6-.2 2.3-.2.8-.5 1.8-1.1 3-.6 1.2-1.4 2.3-2.4 3.2-1 .9-2.5 1.7-4.5 2.3-2 .7-4.3 1-6.9 1-2.7 0-5-.3-7.1-1-2-.7-3.5-1.5-4.6-2.4-1-.9-1.8-2-2.4-3.2-.6-1.2-1-2.3-1.1-3.1-.3-.7-.3-1.5-.3-2.3zm6.6-.1c0 4.1 2.9 6.2 8.8 6.2h.1c5.5 0 8.3-2 8.3-5.9v-5.9c-1.8-.3-3.9-.4-6.3-.5-1 0-2 .1-3.1.3-1.1.2-2.2.5-3.5.8-1.2.4-2.3 1-3.1 1.9-.8.9-1.2 1.9-1.2 3.1zM346.9 199.4v-33.3c5.1-2.5 10.2-3.7 15.5-3.7 4.6 0 8.2 1.2 10.8 3.6 2.6 2.4 3.9 5.7 3.9 10v23.5h-6.8v-24c0-2.1-.5-3.8-1.6-5.1-1.1-1.2-3.3-1.9-6.6-1.9-3 0-5.8.4-8.6 1.3v29.6h-6.6zM384.8 180.7c0-3.6.5-6.7 1.5-9.2 1-2.5 2.4-4.4 4.1-5.7 1.7-1.3 3.5-2.1 5.3-2.7 1.8-.5 3.8-.8 5.9-.8 2.6 0 5.2.4 7.8 1.1v-14.3h6.7v39c0 .8-.1 1.6-.2 2.3-.2.8-.5 1.8-1.1 3-.6 1.2-1.4 2.3-2.4 3.2-1 .9-2.5 1.7-4.5 2.3s-4.3 1-6.9 1c-1.4 0-2.8-.1-4-.4-1.3-.2-2.7-.8-4.2-1.6s-2.8-1.9-3.9-3.2c-1.1-1.3-2-3.2-2.8-5.6-.9-2.4-1.3-5.2-1.3-8.4zm6.7 0c0 2.8.3 5.1.8 7 .5 1.9 1.3 3.2 2.3 4.1s2 1.4 3 1.7c1 .3 2.1.5 3.5.5 5.6 0 8.4-1.8 8.4-5.4V170c-2.5-1-5.1-1.5-7.8-1.5-1.4 0-2.7.1-3.8.4-1.1.3-2.1.8-3.1 1.6s-1.8 2.1-2.3 3.8-1 3.8-1 6.4zM450.7 199.4v-48.7h6.8v21.2h23.3v-21.2h6.7v48.7h-6.7v-21.2h-23.3v21.2h-6.8zM495.3 187.9c0-3.6 1.5-6.4 4.6-8.4 3-2 7.2-3 12.6-3 2.3 0 4.5.1 6.6.4-.1-3.1-1-5.3-2.5-6.6-1.5-1.3-4-2-7.5-2-3.2 0-6.5.6-10.1 1.8v-5.7c3.4-1.3 7.1-2 11-2 5.1 0 9 1.3 11.8 3.9 2.8 2.6 4.1 6.4 4.1 11.3v10.5c0 .8-.1 1.6-.2 2.3-.2.8-.5 1.8-1.1 3-.6 1.2-1.4 2.3-2.4 3.2-1 .9-2.5 1.7-4.5 2.3-2 .7-4.3 1-6.9 1-2.7 0-5-.3-7.1-1-2-.7-3.5-1.5-4.6-2.4-1-.9-1.8-2-2.4-3.2-.6-1.2-1-2.3-1.1-3.1-.2-.7-.3-1.5-.3-2.3zm6.7-.1c0 4.1 2.9 6.2 8.8 6.2h.1c5.5 0 8.3-2 8.3-5.9v-5.9c-1.8-.3-3.9-.4-6.3-.5-1 0-2 .1-3.1.3-1.1.2-2.2.5-3.5.8-1.2.4-2.3 1-3.1 1.9-.8.9-1.2 1.9-1.2 3.1zM534.1 199.4v-33.3c5.1-2.5 10.2-3.7 15.5-3.7 4.6 0 8.2 1.2 10.8 3.6 2.6 2.4 3.9 5.7 3.9 10v23.5h-6.8v-24c0-2.1-.5-3.8-1.6-5.1-1.1-1.2-3.3-1.9-6.6-1.9-3 0-5.8.4-8.6 1.3v29.6h-6.6zM572 180.7c0-3.6.5-6.7 1.5-9.2 1-2.5 2.4-4.4 4.1-5.7 1.7-1.3 3.5-2.1 5.3-2.7 1.8-.5 3.8-.8 5.9-.8 2.6 0 5.2.4 7.8 1.1v-14.3h6.7v39c0 .8-.1 1.6-.2 2.3-.2.8-.5 1.8-1.1 3-.6 1.2-1.4 2.3-2.4 3.2-1 .9-2.5 1.7-4.5 2.3s-4.3 1-6.9 1c-1.4 0-2.8-.1-4-.4-1.3-.2-2.7-.8-4.2-1.6s-2.8-1.9-3.9-3.2c-1.1-1.3-2-3.2-2.8-5.6-.9-2.4-1.3-5.2-1.3-8.4zm6.6 0c0 2.8.3 5.1.8 7 .5 1.9 1.3 3.2 2.3 4.1s2 1.4 3 1.7c1 .3 2.1.5 3.5.5 5.6 0 8.4-1.8 8.4-5.4V170c-2.5-1-5.1-1.5-7.8-1.5-1.4 0-2.7.1-3.8.4-1.1.3-2.1.8-3.1 1.6s-1.8 2.1-2.3 3.8-1 3.8-1 6.4zM636.5 199.4v-48.7h30.7v6.3h-23.8v14.8h21v6.3h-21v21.2h-6.9zM669.9 187.9c0-3.6 1.5-6.4 4.6-8.4 3-2 7.2-3 12.6-3 2.3 0 4.5.1 6.6.4-.1-3.1-1-5.3-2.5-6.6-1.5-1.3-4-2-7.5-2-3.2 0-6.5.6-10.1 1.8v-5.7c3.4-1.3 7.1-2 11-2 5.1 0 9 1.3 11.8 3.9 2.8 2.6 4.1 6.4 4.1 11.3v10.5c0 .8-.1 1.6-.2 2.3-.2.8-.5 1.8-1.1 3-.6 1.2-1.4 2.3-2.4 3.2-1 .9-2.5 1.7-4.5 2.3-2 .7-4.3 1-6.9 1-2.7 0-5-.3-7.1-1-2-.7-3.5-1.5-4.6-2.4-1-.9-1.8-2-2.4-3.2-.6-1.2-1-2.3-1.1-3.1-.2-.7-.3-1.5-.3-2.3zm6.7-.1c0 4.1 2.9 6.2 8.8 6.2h.1c5.5 0 8.3-2 8.3-5.9v-5.9c-1.8-.3-3.9-.4-6.3-.5-1 0-2 .1-3.1.3-1.1.2-2.2.5-3.5.8-1.2.4-2.3 1-3.1 1.9-.8.9-1.2 1.9-1.2 3.1zM708 188.2v-39.1h6.7v14.4c2.5-.7 5.1-1.1 7.8-1.1 2.1 0 4 .3 5.8.8 1.8.5 3.6 1.4 5.3 2.7 1.7 1.3 3.1 3.2 4.1 5.7 1 2.5 1.5 5.6 1.5 9.2 0 3.2-.4 6-1.1 8.4s-1.7 4.3-2.8 5.6c-1.1 1.3-2.4 2.4-3.9 3.2-1.5.8-2.9 1.4-4.2 1.6s-2.6.4-4 .4c-2.6 0-4.9-.3-6.9-1s-3.5-1.4-4.5-2.3-1.8-2-2.4-3.2c-.6-1.2-.9-2.2-1.1-3-.2-.8-.3-1.6-.3-2.3zm6.7.4c0 3.6 2.8 5.4 8.4 5.4 1.3 0 2.4-.2 3.3-.5 1-.3 2-.9 3-1.7 1-.9 1.8-2.2 2.3-4.1.5-1.9.8-4.2.8-7 0-2.6-.3-4.8-.8-6.5s-1.3-3-2.3-3.8c-1-.8-2-1.3-3.1-1.6-1.1-.3-2.3-.4-3.8-.4-2.7 0-5.3.5-7.8 1.5v18.7zM746.8 199.4V166c6.1-2.4 12-3.6 17.8-3.6v6.1c-3.6 0-7.3.6-11.1 1.5v29.3h-6.7zM770.5 157.3v-7.1h7.1v7.1h-7.1zm.2 42.1V163h6.7v36.4h-6.7zM789.8 195.1c-2.9-3.2-4.3-7.9-4.3-14s1.4-10.8 4.3-14c2.9-3.2 7.1-4.8 12.6-4.8 3.7 0 7.3.7 10.7 2v6.4c-3.3-1.6-6.6-2.4-10-2.4h-.1c-3.4 0-6 .9-7.9 2.6-1.9 1.7-2.9 5.1-2.9 10.2 0 2.7.3 4.9.8 6.7.6 1.8 1.4 3.1 2.5 3.9 1.1.9 2.2 1.4 3.4 1.7 1.1.3 2.5.4 4 .4 3.5 0 6.9-.8 10.2-2.3v6.3c-3.4 1.3-7 2-10.7 2-5.5.2-9.7-1.4-12.6-4.7zM818.5 187.9c0-3.6 1.5-6.4 4.6-8.4 3-2 7.2-3 12.6-3 2.3 0 4.5.1 6.6.4-.1-3.1-1-5.3-2.5-6.6-1.5-1.3-4-2-7.5-2-3.2 0-6.5.6-10.1 1.8v-5.7c3.4-1.3 7.1-2 11-2 5.1 0 9 1.3 11.8 3.9 2.8 2.6 4.1 6.4 4.1 11.3v10.5c0 .8-.1 1.6-.2 2.3-.2.8-.5 1.8-1.1 3-.6 1.2-1.4 2.3-2.4 3.2-1 .9-2.5 1.7-4.5 2.3-2 .7-4.3 1-6.9 1-2.7 0-5-.3-7.1-1-2-.7-3.5-1.5-4.6-2.4-1-.9-1.8-2-2.4-3.2-.6-1.2-1-2.3-1.1-3.1-.3-.7-.3-1.5-.3-2.3zm6.6-.1c0 4.1 2.9 6.2 8.8 6.2h.1c5.5 0 8.3-2 8.3-5.9v-5.9c-1.8-.3-3.9-.4-6.3-.5-1 0-2 .1-3.1.3-1.1.2-2.2.5-3.5.8-1.2.4-2.3 1-3.1 1.9-.8.9-1.2 1.9-1.2 3.1zM852.8 168.7V163h6.3v-10.8h6.7V163h9.7v5.7h-9.7v21.1c0 2.8 1.8 4.3 5.4 4.3h.1c1.7 0 3.1-.4 4.2-1.1v6c-1.7.7-3.3 1-5 1h-.2c-.9 0-1.8-.1-2.8-.3-1-.2-2.2-.6-3.6-1.3-1.4-.6-2.5-1.7-3.4-3.3-.9-1.6-1.4-3.5-1.4-5.8v-20.7h-6.3zM880.6 181.6c0-12.8 5.4-19.2 16.1-19.2h.1c4.9 0 8.8 1.6 11.7 4.8 2.9 3.2 4.4 7.4 4.4 12.8 0 1.7-.1 3.4-.2 5h-25.2c.8 6.2 4.2 9.4 10.3 9.4 4.9 0 9.1-.9 12.6-2.7v6.1c-3.8 1.6-8 2.4-12.7 2.4h-.2c-2.1 0-4.1-.3-5.9-.8-1.8-.5-3.6-1.4-5.3-2.7s-3.1-3.1-4-5.7c-1.2-2.7-1.7-5.8-1.7-9.4zm6.7-2.6H906c-.1-1.2-.3-2.4-.6-3.5s-.8-2.2-1.5-3.4c-.7-1.1-1.6-2-2.8-2.7-1.2-.7-2.7-1-4.4-1-3.1 0-5.3.8-6.8 2.4-1.5 1.5-2.3 4.3-2.6 8.2zM918.4 180.7c0-3.6.5-6.7 1.5-9.2 1-2.5 2.4-4.4 4.1-5.7s3.5-2.1 5.3-2.7 3.8-.8 5.9-.8c2.6 0 5.2.4 7.8 1.1v-14.3h6.7v39c0 .8-.1 1.6-.2 2.3-.2.8-.5 1.8-1.1 3-.6 1.2-1.4 2.3-2.4 3.2-1 .9-2.5 1.7-4.5 2.3-2 .7-4.3 1-6.9 1-1.4 0-2.8-.1-4-.4-1.3-.2-2.7-.8-4.2-1.6s-2.8-1.9-3.9-3.2c-1.1-1.3-2-3.2-2.8-5.6-.9-2.4-1.3-5.2-1.3-8.4zm6.7 0c0 2.8.3 5.1.8 7 .5 1.9 1.3 3.2 2.3 4.1s2 1.4 3 1.7c1 .3 2.1.5 3.5.5 5.6 0 8.4-1.8 8.4-5.4V170c-2.5-1-5.1-1.5-7.8-1.5-1.4 0-2.7.1-3.8.4-1.1.3-2.1.8-3.1 1.6s-1.8 2.1-2.3 3.8c-.8 1.6-1 3.8-1 6.4zM985 157.3v-7.1h7.1v7.1H985zm.2 42.1V163h6.7v36.4h-6.7zM1002.3 199.4v-33.3c5.1-2.5 10.2-3.7 15.5-3.7 4.6 0 8.2 1.2 10.8 3.6 2.6 2.4 3.9 5.7 3.9 10v23.5h-6.8v-24c0-2.1-.5-3.8-1.6-5.1-1.1-1.2-3.3-1.9-6.6-1.9-3 0-5.8.4-8.6 1.3v29.6h-6.6zM1062.5 168.7V163h6.3v-10.8h6.7V163h9.7v5.7h-9.7v21.1c0 2.8 1.8 4.3 5.4 4.3h.1c1.7 0 3.1-.4 4.2-1.1v6c-1.7.7-3.3 1-5 1h-.2c-.9 0-1.8-.1-2.8-.3-1-.2-2.2-.6-3.6-1.3-1.4-.6-2.5-1.7-3.4-3.3s-1.4-3.5-1.4-5.8v-20.7h-6.3zM1092.3 199.4V149h6.7v15.2c3.1-1.2 6.3-1.8 9.6-1.8 4.5 0 8.1 1.3 10.6 4s3.8 6.5 3.8 11.5v21.5h-6.8v-21.7c0-3.6-.8-6-2.3-7.1-1.5-1.2-3.5-1.8-5.9-1.8-3 0-6 .6-9 1.8v28.9h-6.7zM1129.9 181.6c0-12.8 5.4-19.2 16.1-19.2h.1c4.9 0 8.8 1.6 11.7 4.8 2.9 3.2 4.4 7.4 4.4 12.8 0 1.7-.1 3.4-.2 5h-25.2c.8 6.2 4.2 9.4 10.3 9.4 4.9 0 9.1-.9 12.6-2.7v6.1c-3.8 1.6-8 2.4-12.7 2.4h-.2c-2.1 0-4.1-.3-5.9-.8-1.8-.5-3.6-1.4-5.3-2.7s-3.1-3.1-4-5.7c-1.2-2.7-1.7-5.8-1.7-9.4zm6.7-2.6h18.7c-.1-1.2-.3-2.4-.6-3.5s-.8-2.2-1.5-3.4c-.7-1.1-1.6-2-2.8-2.7-1.2-.7-2.7-1-4.4-1-3.1 0-5.3.8-6.8 2.4-1.4 1.5-2.2 4.3-2.6 8.2zM1193.9 179.3v-28.6h6.8v29.2c0 4.8 1.1 8.3 3.2 10.6s5.4 3.4 9.9 3.4 7.8-1.1 9.9-3.4 3.2-5.8 3.2-10.6v-29.2h6.8v28.6c0 6.6-1.7 11.7-5.2 15.3s-8.4 5.4-14.7 5.4c-6.3 0-11.2-1.8-14.7-5.4s-5.2-8.7-5.2-15.3zM1243.9 199.4v-6.3h6.8v6.3h-6.8zM1263 163.9c0-3.8 1.4-7 4.2-9.7s7.1-4 12.9-4c4.4 0 8.6 1 12.5 3v6.6c-3.6-2.2-7.5-3.2-11.7-3.2-7.4 0-11 2.5-11 7.4 0 1.3.6 2.5 1.9 3.5 1.3 1 2.9 1.8 4.8 2.4 1.9.6 4 1.3 6.2 2.3 2.3.9 4.3 1.9 6.2 3 1.9 1.1 3.5 2.6 4.8 4.6s1.9 4.4 1.9 7.1c0 4.2-1.6 7.4-4.7 9.7-3.1 2.3-7.4 3.5-12.9 3.5-4.9 0-9.7-1.2-14.5-3.5v-7c4.5 2.8 9.1 4.1 13.9 4.1 7.6 0 11.4-2.3 11.4-6.9 0-2-.6-3.6-1.9-5-1.3-1.4-2.9-2.4-4.8-3l-6.3-2.1c-2.3-.8-4.4-1.6-6.3-2.4-1.9-.8-3.5-2.1-4.8-3.9-1.1-1.9-1.8-4-1.8-6.5zM1306.5 199.4v-6.3h6.8v6.3h-6.8zM1322.7 199.4l19.4-48.7h6.6l19.4 48.7h-7.3l-5.2-13.7h-20.3l-5.2 13.7h-7.4zm14.9-20h15.5l-7.7-20.2-7.8 20.2zM1377.4 199.4v-6.3h6.8v6.3h-6.8z"/></svg>